# xmcd CD database file
#
# Track frame offsets:
#	150
#	12090
#	22596
#	41783
#	61993
#	85206
#	97502
#	109062
#	128269
#	145448
#	187031
#
# Disc length: 2637 seconds
#
# Revision: 0
# Processed by: cddbd v1.5.2PL0 Copyright (c) Steve Scherf et al.
# Submitted via: CDex 1.82
#
DISCID=7d0a4b0b
DTITLE=The Voodoo Hoodoo Blues Club - Wounds And Scars
DYEAR=2018
DGENRE=Blues
TTITLE0=I Was Good
TTITLE1=My Personal Blues
TTITLE2=Blinded By Fear
TTITLE3=Do Me
TTITLE4=Death Comes On Black Wings
TTITLE5=Dishrag
TTITLE6=Runaway Blues
TTITLE7=My Little School Girl
TTITLE8=I Feel Alright
TTITLE9=Wounds And Scars
TTITLE10=Jacky's Song
EXTD=YEAR: 2018
EXTT0=
EXTT1=
EXTT2=
EXTT3=
EXTT4=
EXTT5=
EXTT6=
EXTT7=
EXTT8=
EXTT9=
EXTT10=
PLAYORDER=
